<?xml version="1.0" encoding="UTF-8" standalone="no"?>
<svg 
  version="1.1" 
  xmlns="http://www.w3.org/2000/svg" 
  xmlns:xlink="http://www.w3.org/1999/xlink" 
  xmlns:svg="http://www.w3.org/2000/svg"
  xmlns:rdf="http://www.w3.org/1999/02/22-rdf-syntax-ns#"
  xmlns:cc="http://creativecommons.org/ns#"
  xmlns:dc="http://purl.org/dc/elements/1.1/"
  viewBox="0 0 768 768"
  width="100"
  height="100"
>
<style>svg {background-color: transparent; }</style>"
<metadata id="metadata1">
Created by https://svgstud.io and licensed under CC-BY-SA 4.0 license. Please attribute https://svgstud.io
</metadata>
<metadata id="prompt">
Create a logo with.geometric shape in  black, and white,
</metadata>
<metadata id="version">
7
</metadata>
<metadata id="metadata2">
<rdf:RDF>
<cc:Work
    rdf:about="">
    <cc:license
    rdf:resource="http://creativecommons.org/licenses/by-sa/4.0/" />
    <dc:creator>
        <cc:Agent>
            <dc:title>https://svgstud.io</dc:title>
        </cc:Agent>
    </dc:creator>
</cc:Work>
<cc:License
    rdf:about="http://creativecommons.org/licenses/by-sa/4.0/">
    <cc:permits
    rdf:resource="http://creativecommons.org/ns#Reproduction" />
    <cc:permits
    rdf:resource="http://creativecommons.org/ns#Distribution" />
    <cc:requires
    rdf:resource="http://creativecommons.org/ns#Notice" />
    <cc:requires
    rdf:resource="http://creativecommons.org/ns#Attribution" />
    <cc:permits
    rdf:resource="http://creativecommons.org/ns#DerivativeWorks" />
    <cc:requires
    rdf:resource="http://creativecommons.org/ns#ShareAlike" />
</cc:License>
</rdf:RDF>
</metadata>
<metadata id="uid">
ef9cf6225d92ec657ab1cc9984b0478b7365746a76976109b62c7d4caa513960
</metadata>
<path stroke="none" fill="white" fill-rule="evenodd" d="M377.72,580.91C375.95,580.87 373.34,580.48 371.92,580.05C370.50,579.62 357.67,572.85 343.42,565.02C329.16,557.18 315.48,549.65 313.00,548.28C310.52,546.90 298.82,540.38 287.00,533.77C275.18,527.16 261.39,519.35 256.37,516.42C251.35,513.48 247.01,510.46 246.72,509.70C246.42,508.94 246.52,506.79 246.93,504.91C247.34,503.04 248.19,501.61 248.83,501.75C249.48,501.89 250.00,501.55 250.00,501.00C250.00,500.45 249.55,500.00 249.00,500.00C248.45,500.00 248.00,499.04 248.00,497.87C248.00,496.70 246.17,489.16 243.93,481.12C241.69,473.08 238.27,460.88 236.32,454.00C234.38,447.12 231.77,437.90 230.53,433.50C229.29,429.10 226.59,419.88 224.54,413.00C222.49,406.12 219.92,397.80 218.84,394.50C217.75,391.20 215.53,384.00 213.90,378.50C212.28,373.00 207.11,354.55 202.42,337.50C197.73,320.45 193.63,303.50 193.31,299.83C192.75,293.42 192.84,293.05 195.61,290.48C197.20,289.00 200.53,286.64 203.00,285.22C205.47,283.81 219.20,275.58 233.50,266.95C247.80,258.32 263.34,248.84 268.03,245.88C272.72,242.92 283.89,236.00 292.86,230.50C301.83,225.00 317.09,215.00 326.76,208.27C336.44,201.55 348.13,192.81 352.74,188.85C357.35,184.89 364.17,178.40 367.88,174.42C374.64,167.19 374.64,167.19 375.98,174.77C377.26,181.95 377.23,182.44 375.42,183.75C374.36,184.51 370.57,187.35 367.00,190.07C363.43,192.79 354.20,199.44 346.50,204.87C338.80,210.29 320.57,222.58 306.00,232.18C291.43,241.79 275.55,252.20 270.72,255.32C265.88,258.44 261.74,261.00 261.50,261.00C261.26,261.00 252.84,266.35 242.79,272.89C232.73,279.43 220.54,286.95 215.69,289.60C207.54,294.06 206.94,294.61 207.53,296.96C207.88,298.36 210.34,310.75 213.01,324.50C215.67,338.25 218.81,353.77 219.98,359.00C221.15,364.23 222.97,372.32 224.01,377.00C225.06,381.68 227.31,390.00 229.00,395.50C230.70,401.00 232.86,408.08 233.81,411.24C234.81,414.56 236.45,417.63 237.71,418.51C239.82,419.99 239.89,419.91 240.50,415.26C240.85,412.64 241.21,409.86 241.31,409.07C241.42,408.29 243.86,415.04 246.75,424.07C249.63,433.11 253.94,447.47 256.33,456.00C260.65,471.50 260.65,471.50 265.58,472.28C268.28,472.72 274.23,472.81 278.79,472.48C285.14,472.03 289.55,472.39 297.65,474.03C303.47,475.21 313.24,478.18 319.37,480.64C325.49,483.10 332.30,486.17 334.50,487.47C336.70,488.76 341.43,492.16 345.00,495.01C348.57,497.86 353.22,501.84 355.32,503.85C359.14,507.50 359.14,507.50 358.44,504.50C358.05,502.85 356.11,497.48 354.12,492.56C351.35,485.73 349.37,482.50 345.69,478.89C343.05,476.29 332.93,468.88 323.20,462.43C313.47,455.98 302.74,448.04 299.35,444.78C295.59,441.17 292.37,436.97 291.10,434.02C289.96,431.35 286.73,421.82 283.92,412.84C280.12,400.65 278.69,394.34 278.29,388.00C277.85,380.98 278.39,376.01 281.38,359.50C283.37,348.50 285.45,336.19 286.01,332.13C286.57,328.08 287.30,324.33 287.63,323.79C287.96,323.25 290.32,324.83 292.87,327.31C295.42,329.78 301.31,335.00 305.96,338.90C310.61,342.81 314.85,346.00 315.38,346.00C315.91,346.00 317.06,346.65 317.94,347.45C319.41,348.77 319.54,346.15 319.52,316.62C319.50,284.34 319.50,284.34 322.93,278.92C324.82,275.94 330.22,266.88 334.93,258.78C339.64,250.69 347.10,237.65 351.50,229.82C355.90,221.99 361.41,212.19 363.75,208.04C366.09,203.89 370.03,196.56 372.51,191.75C374.99,186.94 377.23,183.00 377.50,183.00C377.76,183.00 379.51,186.06 381.40,189.79C383.28,193.53 387.67,200.25 391.16,204.74C394.65,209.22 403.18,221.58 410.13,232.20C417.08,242.81 427.93,259.38 434.24,269.00C440.55,278.62 446.30,287.61 447.01,288.98C448.05,290.94 448.19,299.77 447.72,332.03C447.12,372.60 447.12,372.60 458.77,366.65C465.18,363.38 474.89,358.72 480.35,356.30C485.81,353.88 490.93,352.14 491.72,352.45C492.77,352.85 492.98,353.89 492.50,356.25C492.14,358.04 488.28,374.35 483.93,392.50C479.57,410.65 475.12,428.57 474.05,432.33C472.97,436.09 470.97,441.08 469.59,443.43C468.22,445.78 464.43,450.17 461.17,453.18C457.91,456.20 449.90,462.42 443.37,467.01C436.84,471.59 428.60,477.38 425.05,479.87C421.50,482.35 415.27,487.55 411.21,491.41C407.14,495.27 400.90,502.21 397.33,506.83C393.77,511.45 390.61,515.85 390.32,516.61C389.91,517.67 390.69,517.58 393.64,516.20C395.76,515.22 401.55,512.35 406.50,509.82C411.45,507.30 422.02,502.32 430.00,498.76C437.98,495.20 447.04,491.35 450.13,490.20C453.23,489.05 463.36,486.06 472.63,483.54C481.91,481.02 490.41,478.57 491.53,478.10C492.82,477.56 494.19,475.24 495.30,471.71C496.26,468.66 500.19,453.74 504.02,438.55C507.86,423.35 513.00,403.63 515.46,394.71C517.91,385.80 520.79,374.90 521.87,370.50C522.94,366.10 527.04,349.90 530.97,334.50C534.90,319.10 538.99,303.62 540.07,300.10C541.15,296.58 541.91,293.64 541.76,293.56C541.62,293.49 539.70,292.27 537.50,290.85C535.30,289.43 528.55,285.12 522.50,281.27C516.45,277.42 509.62,273.20 507.31,271.89C505.01,270.57 499.16,267.05 494.31,264.05C489.47,261.05 479.43,254.81 472.00,250.17C464.57,245.53 452.88,238.11 446.00,233.68C439.12,229.24 429.90,222.93 425.50,219.63C421.10,216.34 415.57,212.27 413.21,210.58C410.85,208.88 406.13,205.32 402.71,202.66C399.29,199.99 394.34,195.98 391.70,193.74C389.06,191.50 385.98,188.37 384.84,186.78C383.71,185.19 383.01,183.65 383.29,183.37C383.58,183.09 385.76,183.85 388.15,185.07C390.54,186.28 394.30,188.49 396.50,189.97C398.70,191.46 404.10,194.70 408.50,197.18C412.90,199.67 421.95,205.25 428.62,209.60C435.29,213.94 451.85,224.70 465.44,233.50C479.02,242.30 494.26,252.15 499.32,255.40C504.37,258.64 515.48,265.55 524.00,270.76C532.52,275.96 543.21,282.44 547.75,285.15C555.41,289.72 556.00,290.31 556.00,293.36C556.00,295.16 555.34,298.86 554.54,301.57C553.74,304.28 549.02,322.48 544.06,342.00C539.10,361.52 533.72,382.45 532.11,388.50C530.50,394.55 524.80,416.15 519.45,436.50C514.11,456.85 508.86,477.55 507.81,482.50C506.75,487.45 505.08,492.62 504.10,494.00C503.11,495.38 494.70,501.11 485.41,506.75C476.11,512.39 464.68,519.10 460.00,521.66C455.32,524.22 444.98,530.00 437.00,534.50C429.02,539.01 418.00,545.19 412.50,548.23C407.00,551.28 397.89,556.08 392.25,558.90C386.61,561.71 382.00,564.49 382.00,565.07C382.00,565.66 382.48,567.02 383.06,568.11C383.84,569.57 383.70,571.52 382.53,575.54C381.02,580.73 380.78,581.00 377.72,580.91zM375.80,571.00C378.16,571.00 378.16,570.98 377.50,561.86C377.14,556.83 376.32,551.82 375.67,550.73C375.03,549.63 370.04,545.83 364.60,542.29C359.15,538.74 349.25,532.78 342.60,529.05C335.94,525.32 328.93,521.37 327.00,520.29C325.07,519.20 315.40,513.82 305.50,508.32C295.60,502.83 282.77,495.95 277.00,493.05C271.23,490.14 264.48,487.15 262.00,486.39C259.52,485.64 255.54,485.02 253.14,485.01C249.06,485.00 248.82,485.15 249.38,487.36C249.70,488.66 250.40,492.77 250.93,496.48C251.58,501.08 252.53,503.85 253.90,505.12C255.01,506.16 259.43,508.73 263.71,510.85C267.99,512.96 278.02,518.05 286.00,522.16C293.98,526.27 307.70,533.61 316.50,538.47C325.30,543.33 337.11,550.05 342.75,553.40C348.38,556.76 356.50,561.30 360.77,563.50C365.05,565.70 369.65,568.29 371.00,569.25C372.34,570.21 374.51,571.00 375.80,571.00zM383.87,517.97C384.21,517.95 386.52,514.29 389.00,509.82C391.48,505.36 394.33,499.63 395.34,497.10C396.36,494.57 398.04,486.43 399.08,479.00C400.13,471.57 401.27,464.17 401.61,462.54C402.05,460.51 407.45,454.28 418.87,442.62C428.01,433.30 434.94,425.48 434.26,425.25C433.59,425.03 431.12,426.63 428.77,428.81C426.42,430.99 423.10,433.94 421.39,435.36C419.68,436.78 418.01,437.68 417.68,437.35C417.35,437.02 418.02,434.90 419.17,432.63C420.32,430.36 423.77,424.90 426.83,420.50C429.90,416.10 433.66,410.93 435.19,409.00C436.72,407.07 440.90,401.46 444.49,396.53C448.07,391.60 451.00,387.27 451.00,386.90C451.00,386.53 450.14,386.01 449.10,385.74C447.96,385.44 444.83,386.74 441.27,388.99C438.01,391.05 431.78,395.35 427.42,398.54C423.06,401.73 417.55,406.40 415.16,408.92C412.78,411.44 408.18,416.94 404.95,421.14C401.72,425.34 398.49,429.39 397.77,430.14C397.05,430.89 395.45,432.80 394.23,434.38C393.00,435.97 392.00,436.86 392.00,436.36C392.00,435.86 392.62,434.56 393.38,433.47C394.13,432.39 397.24,426.68 400.29,420.78C404.73,412.18 405.94,408.81 406.38,403.78C406.68,400.33 407.14,376.94 407.40,351.81C407.87,306.11 407.87,306.11 398.70,298.81C393.66,294.79 388.08,290.49 386.32,289.25C384.55,288.01 382.97,287.00 382.80,287.00C382.64,287.00 382.34,335.94 382.14,395.75C381.94,455.56 382.11,507.54 382.51,511.25C382.91,514.96 383.52,517.99 383.87,517.97zM371.43,515.29C372.11,514.12 372.60,494.78 372.84,459.59C373.20,405.68 373.20,405.68 355.35,388.28C345.53,378.71 334.08,367.87 329.89,364.19C325.70,360.51 320.08,355.77 317.39,353.65C314.70,351.54 309.45,347.99 305.72,345.77C301.99,343.55 298.72,341.95 298.45,342.21C298.19,342.48 298.88,345.58 299.99,349.10C301.10,352.62 303.47,357.83 305.25,360.67C307.04,363.51 310.75,368.24 313.49,371.17C316.24,374.10 326.70,385.17 336.73,395.77C346.77,406.37 355.75,416.22 356.70,417.66C358.18,419.93 358.51,424.56 359.15,452.39C359.76,478.92 360.26,486.41 362.02,495.47C363.20,501.50 364.81,508.01 365.62,509.93C366.42,511.85 367.82,514.25 368.73,515.25C370.31,517.00 370.42,517.00 371.43,515.29zM319.50,432.64C320.05,432.45 320.42,431.66 320.32,430.90C320.21,430.13 319.18,424.59 318.01,418.60C316.85,412.60 314.52,402.70 312.83,396.60C311.14,390.49 309.37,384.82 308.91,384.00C308.34,382.99 308.06,383.80 308.05,386.50C308.04,388.70 308.68,395.03 309.47,400.57C310.26,406.12 311.22,414.83 311.60,419.93C312.28,428.93 312.40,429.27 315.40,431.10C317.11,432.14 318.95,432.83 319.50,432.64zM417.10,400.00C417.61,400.00 421.80,396.22 426.42,391.61C431.04,386.99 435.50,382.16 436.34,380.86C437.61,378.90 437.97,372.13 438.48,340.50C438.82,319.60 439.32,301.04 439.59,299.25C439.97,296.80 439.72,296.00 438.58,296.00C437.75,296.00 432.34,298.11 426.56,300.68C416.04,305.37 416.04,305.37 415.77,345.93C415.62,368.25 415.65,389.54 415.84,393.25C416.02,396.96 416.59,400.00 417.10,400.00zM249.34,393.17C248.56,394.91 248.16,394.46 246.33,389.84C245.16,386.90 242.84,380.00 241.17,374.50C239.50,369.00 235.81,356.42 232.99,346.55C230.16,336.68 226.99,324.53 225.94,319.55C224.89,314.57 224.02,308.81 224.02,306.75C224.01,304.69 224.43,303.00 224.96,303.00C225.50,303.00 226.40,303.88 226.97,304.95C227.55,306.02 230.93,317.52 234.49,330.50C238.05,343.48 243.05,362.44 245.60,372.63C248.89,385.77 249.97,391.74 249.34,393.17zM371.16,390.26C371.55,389.29 371.91,376.57 371.98,362.00C372.05,347.43 372.49,325.15 372.95,312.50C373.42,299.76 373.42,289.10 372.94,288.59C372.44,288.06 370.30,289.18 367.79,291.27C365.43,293.24 361.76,296.38 359.64,298.25C355.79,301.65 355.79,301.65 355.90,315.07C355.96,322.46 356.28,339.75 356.60,353.50C357.18,378.50 357.18,378.50 363.82,385.26C369.35,390.88 370.58,391.72 371.16,390.26zM342.88,366.00C343.37,366.00 344.01,365.07 344.31,363.93C344.60,362.80 344.88,350.76 344.93,337.18C344.97,323.61 344.74,310.19 344.40,307.37C343.80,302.24 343.80,302.24 336.37,297.99C332.28,295.65 328.76,293.91 328.55,294.12C328.34,294.33 328.05,307.76 327.89,323.98C327.61,353.45 327.61,353.45 334.80,359.73C338.75,363.18 342.39,366.00 342.88,366.00zM411.29,298.98C411.73,298.99 412.93,298.21 413.97,297.24C415.01,296.27 419.94,293.75 424.93,291.64C434.00,287.80 434.00,287.80 432.25,284.84C431.29,283.21 427.92,278.20 424.77,273.69C421.62,269.19 417.39,263.02 415.37,260.00C413.35,256.98 409.18,250.60 406.10,245.83C403.02,241.06 399.63,235.66 398.57,233.83C397.50,232.00 396.59,230.28 396.53,230.00C396.48,229.72 395.16,227.52 393.60,225.09C392.05,222.67 389.03,217.08 386.90,212.67C384.77,208.27 382.76,203.05 382.44,201.08C382.11,199.11 381.64,196.86 381.39,196.08C381.03,194.96 380.64,195.07 379.62,196.58C378.89,197.63 377.35,201.65 376.20,205.50C375.04,209.35 371.88,217.00 369.18,222.50C366.48,228.00 359.43,240.60 353.52,250.50C347.60,260.40 340.34,272.02 337.38,276.33C334.42,280.64 332.00,284.99 332.00,286.01C332.00,287.28 334.15,289.02 338.75,291.50C342.46,293.50 346.89,295.37 348.59,295.67C351.37,296.16 352.56,295.41 360.09,288.46C364.72,284.20 369.85,279.42 371.50,277.84C374.50,274.96 374.50,274.96 375.61,247.61C376.22,232.57 377.08,219.68 377.52,218.96C378.11,218.01 378.58,218.31 379.24,220.08C379.75,221.41 380.41,233.97 380.72,248.00C381.03,262.02 381.66,274.51 382.12,275.75C382.58,276.99 385.06,279.47 387.62,281.25C390.19,283.04 396.39,287.75 401.40,291.73C406.40,295.71 410.86,298.97 411.29,298.98z" />

</svg> 